<svg width="119" height="119" viewBox="0 0 119 119" fill="none" xmlns="http://www.w3.org/2000/svg">
<rect x="6.57984" y="6.57996" width="111.811" height="111.811" rx="55.9056" fill="black"></rect>
<rect x="6.57984" y="6.57996" width="111.811" height="111.811" rx="55.9056" stroke="black" stroke-width="1.12941"></rect>
<g clip-path="url(#clip0_73_537)">
<path fill-rule="evenodd" clip-rule="evenodd" d="M65.1502 18.8265C59.0663 26.038 53.4288 33.6848 50.1134 42.6154C48.4612 47.0918 46.5188 54.0465 46.2285 58.8021C46.0946 60.8226 45.8713 63.7809 48.7626 63.3009C49.477 63.1781 50.3366 62.5529 50.9171 62.1287C52.5693 60.9454 54.1098 60.0412 55.9852 59.2039C58.1732 58.2439 60.8077 57.4848 63.1855 57.6411C65.9763 57.8085 68.7001 58.6458 70.81 60.5659C71.837 61.4924 73.1766 63.6804 74.7171 63.6804C77.5414 63.6804 77.8428 55.2522 77.8428 53.3544C77.8428 50.5636 77.0614 47.6277 76.2688 44.9597C73.5896 35.9621 69.2918 27.2323 65.1502 18.8265Z" fill="white"></path>
<path fill-rule="evenodd" clip-rule="evenodd" d="M77.1388 47.7296C78.0542 46.8142 78.9026 46.1444 78.9026 44.8383C80.7222 42.7619 82.3632 40.7302 84.2721 38.732C84.5177 39.1562 86.0917 39.1339 87.0071 38.5422C87.0629 38.5087 87.1299 38.5422 87.1969 38.5422C87.9895 38.5422 88.9942 39.3125 89.7421 39.1227C90.4231 38.9553 90.758 38.6092 90.9254 37.9394C90.9924 37.6603 90.6575 37.5822 90.5124 37.3589C90.7691 37.1022 91.5171 37.5152 91.8855 36.3877C92.2762 35.2268 91.1375 34.6463 90.7245 34.4342C91.0147 34.423 91.5617 33.5411 91.5059 33.0723C91.4724 32.8378 90.9477 32.2462 90.7245 32.1122C90.5459 32.0006 90.3338 31.9336 90.1217 31.889C89.4072 31.7662 88.5253 31.9448 87.7774 31.6992C87.6881 31.6769 87.5876 31.5987 87.5876 31.5094C87.5764 30.8954 87.9672 29.8796 87.7774 29.3772C87.3532 28.1828 87.1299 27.5688 85.8461 27.2227C85.1429 27.0329 84.6517 27.2674 84.0824 27.6134C84.0042 27.6581 83.9261 27.7251 83.8814 27.8032C83.8703 27.8367 83.8703 28.1716 83.8814 28.1939C83.9261 28.2721 84.0489 28.3056 84.0824 28.3837C84.4842 29.4107 85.0201 32.0006 84.6628 33.0723C84.4173 33.7979 83.513 34.5681 83.3009 35.6175C83.1112 36.5552 82.8656 37.6938 83.3009 37.9394L78.8021 43.7778C78.0765 42.695 76.9156 42.8401 75.6653 42.8401L77.1388 47.7296Z" fill="black"></path>
<path fill-rule="evenodd" clip-rule="evenodd" d="M50.7162 40.4822C48.45 40.1027 48.584 40.3929 47.9812 41.2637C45.9383 41.219 44.2415 41.4758 42.3103 42.4246C41.0265 43.0498 41.1716 45.4164 40.9483 46.5104C40.9372 46.5997 40.8479 46.7113 40.7586 46.7113C40.3344 46.2648 39.6981 46.8899 39.7874 47.5039C38.9055 47.5709 37.9008 48.5979 37.8338 49.0556C37.6329 50.3729 34.7193 48.1179 33.7257 48.2742C33.3908 48.33 33.1899 48.9663 33.1452 49.2454C33.0783 49.6473 33.1341 50.1943 33.5248 50.4287C33.9825 50.6966 37.164 50.9422 37.2533 51.199C37.3315 51.4445 35.8691 51.8911 35.6793 51.9804C34.4737 52.5162 34.3732 52.5944 33.9155 53.7442C33.4355 54.9275 35.1881 55.0168 36.07 54.9051C36.8626 54.8047 37.9678 53.052 38.805 53.5432C39.6088 54.0344 39.0729 55.5526 38.9948 56.2782C38.8943 57.2159 38.6934 58.2206 39.7874 58.2206C40.926 58.2206 41.0488 57.1266 41.1493 56.0884C41.1828 55.6977 41.1158 55.2959 41.1493 54.9051C41.2051 54.2577 41.7521 52.3264 42.7121 52.5609C43.7615 52.8176 43.2815 54.1237 45.4471 54.1237C45.7932 54.1237 46.1616 53.9674 46.4183 53.7442C46.6974 53.4874 46.8649 53.1079 46.9988 52.7506C47.1328 52.3823 47.1886 51.9804 47.1886 51.5897C47.1886 51.1208 46.8202 50.8194 46.4183 50.8194C45.983 50.8194 45.4694 51.199 45.2573 51.199C45.1011 51.199 44.9783 51.0762 44.8443 51.0092C44.2527 50.7189 43.5605 50.2947 43.1028 49.8259C43.0917 49.8147 42.7345 49.29 42.7121 49.2454C43.3484 48.9998 42.9354 47.2807 42.3103 47.303C42.2768 47.1802 42.2879 47.0351 42.3103 46.9011C42.4777 45.9857 42.8014 43.7754 43.4936 43.1949C44.5206 42.3353 46.6081 41.9 47.9812 41.6432C47.9923 42.5698 48.9859 42.9047 49.7338 43.1949L50.7162 40.4822Z" fill="black"></path>
<path fill-rule="evenodd" clip-rule="evenodd" d="M65.15 19.2179C57.9944 26.3735 53.5067 33.7524 49.9233 43.1965C57.7376 40.2271 68.4543 40.5508 76.0788 43.9779C73.288 36.1524 69.4702 26.5073 65.15 19.2179Z" fill="black"></path>
<path fill-rule="evenodd" clip-rule="evenodd" d="M62.571 33.8186C66.6567 33.8186 70.095 36.7545 70.095 40.6282C70.095 44.4795 66.3218 47.5047 62.2472 47.4154C57.2573 47.3038 54.9353 44.7028 54.9353 40.8514C54.9353 36.9778 58.4852 33.8186 62.571 33.8186Z" fill="url(#paint0_radial_73_537)" stroke="#231F20" stroke-width="1.45122"></path>
<path d="M90.3232 32.1115L89.352 32.3012L87.9901 32.491L87.1975 33.0716V34.0427" stroke="#666666" stroke-width="0.0334897"></path>
<path d="M90.7249 34.4325H88.7714L87.3983 34.8232L87.0076 35.4149L87.3983 36.1963" stroke="#666666" stroke-width="0.0334897"></path>
<path d="M90.5128 37.3562L89.3518 36.9654L88.1909 36.7755L87.1973 37.1662L87.0076 38.1486" stroke="#666666" stroke-width="0.0334897"></path>
<path fill-rule="evenodd" clip-rule="evenodd" d="M65.1502 18.8265C59.0663 26.038 53.4288 33.6848 50.1134 42.6154C48.4612 47.0918 46.5188 54.0465 46.2285 58.8021C46.0946 60.8226 45.8713 63.7809 48.7626 63.3009C49.477 63.1781 50.3366 62.5529 50.9171 62.1287C52.5693 60.9454 54.1098 60.0412 55.9852 59.2039C58.1732 58.2439 60.8077 57.4848 63.1855 57.6411C65.9763 57.8085 68.7001 58.6458 70.81 60.5659C71.837 61.4924 73.1766 63.6804 74.7171 63.6804C77.5414 63.6804 77.8428 55.2522 77.8428 53.3544C77.8428 50.5636 77.0614 47.6277 76.2688 44.9597C73.5896 35.9621 69.2918 27.2323 65.1502 18.8265Z" stroke="#231F20" stroke-width="1.67448"></path>
</g>
<path d="M41.8071 102.48C40.325 102.48 39.0283 102.244 37.9167 101.773C36.8221 101.301 35.9716 100.611 35.3653 99.7014C34.759 98.7751 34.4559 97.6467 34.4559 96.3163C34.4559 95.6595 34.5317 94.969 34.6832 94.2448C35.2727 91.5165 36.46 89.4114 38.2451 87.9294C40.0303 86.4473 42.5228 85.7063 45.7226 85.7063C46.7331 85.7063 47.6341 85.7653 48.4257 85.8832C49.2172 86.001 49.9498 86.1779 50.6234 86.4136L49.7393 90.4808C49.0656 90.1945 48.3415 90.0008 47.5668 89.8998C46.8089 89.7987 46.0174 89.7482 45.1921 89.7482C43.7438 89.7482 42.5228 90.1019 41.5292 90.8092C40.5356 91.5165 39.8703 92.6617 39.5335 94.2448C39.3819 94.9016 39.3061 95.4742 39.3061 95.9626C39.3061 96.8215 39.5588 97.4531 40.064 97.8572C40.5861 98.2446 41.4534 98.4383 42.666 98.4383C43.1038 98.4383 43.5164 98.413 43.9038 98.3625C44.308 98.2951 44.6953 98.2109 45.0658 98.1099L45.5711 95.7353H42.3376L42.9691 92.8049H50.1687L48.4257 100.99C47.7183 101.377 46.8089 101.722 45.6974 102.025C44.6027 102.329 43.3059 102.48 41.8071 102.48ZM57.4787 102.48C56.0977 102.48 54.9272 102.253 53.9673 101.798C53.0073 101.327 52.2747 100.695 51.7695 99.9035C51.2811 99.0951 51.0369 98.1857 51.0369 97.1752C51.0369 96.7373 51.0874 96.2826 51.1885 95.811L53.2852 85.9589H58.0344L56.0135 95.4574C55.9124 95.9289 55.8619 96.3415 55.8619 96.6952C55.8619 97.3183 56.0556 97.7646 56.4429 98.0341C56.8303 98.3035 57.4618 98.4383 58.3376 98.4383C59.4154 98.4383 60.2238 98.2109 60.7627 97.7562C61.3016 97.3015 61.6805 96.5352 61.8995 95.4574L63.9204 85.9589H68.6696L66.5476 95.9626C66.0761 98.253 65.0993 99.9119 63.6173 100.939C62.1353 101.967 60.089 102.48 57.4787 102.48ZM70.1715 102.48C69.4642 102.48 68.799 102.43 68.1758 102.329C67.5527 102.244 66.9717 102.101 66.4328 101.899L67.2664 97.9583C68.0411 98.2951 68.9674 98.4635 70.0452 98.4635C71.0557 98.4635 71.7714 98.2783 72.1925 97.9078C72.6135 97.5373 72.9082 96.9226 73.0766 96.0637L75.2239 85.9589H79.9731L77.6743 96.8215C77.2869 98.6572 76.487 100.063 75.2744 101.04C74.0618 102 72.3609 102.48 70.1715 102.48Z" fill="white"></path>
<path d="M41.2914 85.7653C40.5841 85.7653 39.9189 85.7148 39.2958 85.6137C38.6726 85.5295 38.0916 85.3864 37.5527 85.1843L38.3863 81.2435C39.161 81.5803 40.0873 81.7487 41.1651 81.7487C42.1756 81.7487 42.8914 81.5634 43.3124 81.1929C43.7334 80.8224 44.0281 80.2077 44.1966 79.3488L46.3438 69.2441H51.093L48.7942 80.1067C48.4069 81.9424 47.6069 83.3486 46.3943 84.3254C45.1818 85.2853 43.4808 85.7653 41.2914 85.7653ZM57.3141 85.7653C55.9332 85.7653 54.7627 85.538 53.8027 85.0832C52.8428 84.6117 52.1102 83.9801 51.605 83.1886C51.1166 82.3802 50.8724 81.4708 50.8724 80.4603C50.8724 80.0225 50.9229 79.5678 51.0239 79.0962L53.1207 69.2441H57.8699L55.849 78.7425C55.7479 79.2141 55.6974 79.6267 55.6974 79.9804C55.6974 80.6035 55.8911 81.0498 56.2784 81.3192C56.6658 81.5887 57.2973 81.7234 58.173 81.7234C59.2509 81.7234 60.0593 81.4961 60.5982 81.0414C61.1371 80.5866 61.516 79.8204 61.735 78.7425L63.7559 69.2441H68.5051L66.3831 79.2478C65.9116 81.5382 64.9348 83.197 63.4528 84.2243C61.9707 85.2517 59.9245 85.7653 57.3141 85.7653ZM75.5141 85.7653C74.0321 85.7653 72.7353 85.5295 71.6238 85.058C70.5291 84.5864 69.6786 83.8959 69.0723 82.9865C68.466 82.0602 68.1629 80.9319 68.1629 79.6014C68.1629 78.9446 68.2387 78.2541 68.3903 77.53C68.9797 74.8017 70.167 72.6965 71.9522 71.2145C73.7373 69.7325 76.2298 68.9915 79.4297 68.9915C80.4401 68.9915 81.3411 69.0504 82.1327 69.1683C82.9242 69.2862 83.6568 69.463 84.3305 69.6988L83.4463 73.766C82.7726 73.4797 82.0485 73.286 81.2738 73.1849C80.5159 73.0839 79.7244 73.0334 78.8992 73.0334C77.4508 73.0334 76.2298 73.387 75.2362 74.0944C74.2426 74.8017 73.5773 75.9469 73.2405 77.53C73.089 78.1868 73.0132 78.7594 73.0132 79.2478C73.0132 80.1067 73.2658 80.7382 73.771 81.1424C74.2931 81.5298 75.1604 81.7234 76.373 81.7234C76.8109 81.7234 77.2235 81.6982 77.6108 81.6476C78.015 81.5803 78.4024 81.4961 78.7729 81.395L79.2781 79.0204H76.0446L76.6761 76.09H83.8757L82.1327 84.2749C81.4253 84.6622 80.5159 85.0075 79.4044 85.3106C78.3097 85.6137 77.013 85.7653 75.5141 85.7653Z" fill="black"></path>
<g clip-path="url(#clip1_73_537)">
<rect width="112.941" height="112.941" rx="56.4703" fill="white"></rect>
<rect x="0.112793" y="79.3976" width="112.941" height="37.2704" fill="#F02D32"></rect>
<g clip-path="url(#clip2_73_537)">
<path fill-rule="evenodd" clip-rule="evenodd" d="M59.1353 12.8112C53.0514 20.0226 47.4139 27.6694 44.0985 36.6C42.4463 41.0765 40.5039 48.0311 40.2137 52.7867C40.0797 54.8072 39.8564 57.7655 42.7477 57.2855C43.4622 57.1627 44.3217 56.5375 44.9022 56.1133C46.5544 54.93 48.0949 54.0258 49.9703 53.1886C52.1583 52.2285 54.7928 51.4694 57.1706 51.6257C59.9614 51.7932 62.6852 52.6304 64.7951 54.5505C65.8221 55.477 67.1617 57.665 68.7022 57.665C71.5265 57.665 71.8279 49.2368 71.8279 47.339C71.8279 44.5482 71.0465 41.6123 70.2539 38.9443C67.5747 29.9467 63.2769 21.2169 59.1353 12.8112Z" fill="white"></path>
<path fill-rule="evenodd" clip-rule="evenodd" d="M71.1239 41.7143C72.0393 40.7989 72.8877 40.1291 72.8877 38.823C74.7073 36.7467 76.3483 34.715 78.2572 32.7168C78.5028 33.141 80.0768 33.1186 80.9922 32.527C81.048 32.4935 81.115 32.527 81.182 32.527C81.9746 32.527 82.9793 33.2972 83.7272 33.1075C84.4082 32.94 84.7431 32.594 84.9105 31.9242C84.9775 31.6451 84.6426 31.5669 84.4975 31.3437C84.7542 31.0869 85.5022 31.5 85.8706 30.3725C86.2613 29.2115 85.1226 28.631 84.7096 28.4189C84.9998 28.4077 85.5468 27.5259 85.491 27.057C85.4575 26.8226 84.9329 26.2309 84.7096 26.097C84.531 25.9853 84.3189 25.9183 84.1068 25.8737C83.3923 25.7509 82.5104 25.9295 81.7625 25.6839C81.6732 25.6616 81.5727 25.5835 81.5727 25.4941C81.5616 24.8802 81.9523 23.8643 81.7625 23.362C81.3383 22.1675 81.115 21.5535 79.8313 21.2075C79.128 21.0177 78.6368 21.2521 78.0675 21.5982C77.9893 21.6428 77.9112 21.7098 77.8665 21.788C77.8554 21.8214 77.8554 22.1563 77.8665 22.1787C77.9112 22.2568 78.034 22.2903 78.0675 22.3684C78.4693 23.3955 79.0052 25.9853 78.648 27.057C78.4024 27.7826 77.4981 28.5529 77.286 29.6022C77.0963 30.5399 76.8507 31.6786 77.286 31.9242L72.7873 37.7625C72.0616 36.6797 70.9007 36.8248 69.6504 36.8248L71.1239 41.7143Z" fill="black"></path>
<path fill-rule="evenodd" clip-rule="evenodd" d="M44.701 34.467C42.4349 34.0874 42.5689 34.3777 41.966 35.2484C39.9232 35.2038 38.2264 35.4605 36.2951 36.4094C35.0113 37.0345 35.1565 39.4011 34.9332 40.4951C34.922 40.5844 34.8327 40.6961 34.7434 40.6961C34.3192 40.2495 33.6829 40.8747 33.7722 41.4887C32.8903 41.5556 31.8856 42.5827 31.8187 43.0404C31.6177 44.3576 28.7041 42.1026 27.7106 42.2589C27.3757 42.3147 27.1748 42.951 27.1301 43.2301C27.0631 43.632 27.1189 44.179 27.5097 44.4134C27.9673 44.6813 31.1489 44.9269 31.2382 45.1837C31.3163 45.4293 29.8539 45.8758 29.6642 45.9651C28.4585 46.501 28.3581 46.5791 27.9004 47.7289C27.4204 48.9122 29.173 49.0015 30.0549 48.8899C30.8475 48.7894 31.9526 47.0368 32.7899 47.528C33.5936 48.0192 33.0578 49.5374 32.9796 50.263C32.8792 51.2007 32.6782 52.2054 33.7722 52.2054C34.9109 52.2054 35.0337 51.1114 35.1341 50.0732C35.1676 49.6825 35.1007 49.2806 35.1341 48.8899C35.19 48.2424 35.737 46.3112 36.697 46.5456C37.7463 46.8024 37.2663 48.1085 39.432 48.1085C39.778 48.1085 40.1464 47.9522 40.4032 47.7289C40.6823 47.4722 40.8497 47.0926 40.9837 46.7354C41.1176 46.367 41.1735 45.9651 41.1735 45.5744C41.1735 45.1055 40.8051 44.8041 40.4032 44.8041C39.9678 44.8041 39.4543 45.1837 39.2422 45.1837C39.0859 45.1837 38.9631 45.0609 38.8292 44.9939C38.2375 44.7037 37.5454 44.2795 37.0877 43.8106C37.0765 43.7995 36.7193 43.2748 36.697 43.2301C37.3333 42.9845 36.9203 41.2654 36.2951 41.2877C36.2616 41.1649 36.2728 41.0198 36.2951 40.8858C36.4626 39.9705 36.7863 37.7601 37.4784 37.1797C38.5054 36.3201 40.593 35.8847 41.966 35.628C41.9772 36.5545 42.9707 36.8894 43.7187 37.1797L44.701 34.467Z" fill="black"></path>
<path fill-rule="evenodd" clip-rule="evenodd" d="M59.1351 13.2026C51.9795 20.3583 47.4918 27.7372 43.9084 37.1813C51.7227 34.2118 62.4394 34.5356 70.0639 37.9627C67.2731 30.1371 63.4553 20.4921 59.1351 13.2026Z" fill="black"></path>
<path fill-rule="evenodd" clip-rule="evenodd" d="M56.5558 27.8032C60.6416 27.8032 64.0798 30.7392 64.0798 34.6128C64.0798 38.4641 60.3067 41.4893 56.2321 41.4C51.2421 41.2884 48.9202 38.6874 48.9202 34.8361C48.9202 30.9624 52.4701 27.8032 56.5558 27.8032Z" fill="url(#paint1_radial_73_537)" stroke="#231F20" stroke-width="1.45122"></path>
<path d="M84.3081 26.0962L83.3369 26.286L81.975 26.4757L81.1824 27.0564V28.0274" stroke="#666666" stroke-width="0.0334897"></path>
<path d="M84.7098 28.4172H82.7562L81.3831 28.8079L80.9924 29.3996L81.3831 30.181" stroke="#666666" stroke-width="0.0334897"></path>
<path d="M84.4977 31.3409L83.3367 30.9502L82.1757 30.7603L81.1822 31.151L80.9924 32.1333" stroke="#666666" stroke-width="0.0334897"></path>
<path fill-rule="evenodd" clip-rule="evenodd" d="M59.1353 12.8112C53.0514 20.0226 47.4139 27.6694 44.0985 36.6C42.4463 41.0765 40.5039 48.0311 40.2137 52.7867C40.0797 54.8072 39.8564 57.7655 42.7477 57.2855C43.4622 57.1627 44.3217 56.5375 44.9022 56.1133C46.5544 54.93 48.0949 54.0258 49.9703 53.1886C52.1583 52.2285 54.7928 51.4694 57.1706 51.6257C59.9614 51.7932 62.6852 52.6304 64.7951 54.5505C65.8221 55.477 67.1617 57.665 68.7022 57.665C71.5265 57.665 71.8279 49.2368 71.8279 47.339C71.8279 44.5482 71.0465 41.6123 70.2539 38.9443C67.5747 29.9467 63.2769 21.2169 59.1353 12.8112Z" stroke="#231F20" stroke-width="1.67448"></path>
</g>
<path d="M35.7922 96.465C34.3101 96.465 33.0134 96.2292 31.9019 95.7577C30.8072 95.2861 29.9567 94.5956 29.3504 93.6862C28.7441 92.76 28.441 91.6316 28.441 90.3011C28.441 89.6443 28.5168 88.9538 28.6683 88.2297C29.2578 85.5014 30.4451 83.3962 32.2303 81.9142C34.0154 80.4322 36.5079 79.6912 39.7078 79.6912C40.7182 79.6912 41.6192 79.7501 42.4108 79.868C43.2023 79.9859 43.9349 80.1627 44.6085 80.3985L43.7244 84.4657C43.0507 84.1794 42.3266 83.9857 41.5519 83.8846C40.794 83.7836 40.0025 83.7331 39.1773 83.7331C37.7289 83.7331 36.5079 84.0867 35.5143 84.7941C34.5207 85.5014 33.8554 86.6466 33.5186 88.2297C33.367 88.8865 33.2913 89.4591 33.2913 89.9475C33.2913 90.8064 33.5439 91.4379 34.0491 91.8421C34.5712 92.2295 35.4385 92.4231 36.6511 92.4231C37.0889 92.4231 37.5016 92.3979 37.8889 92.3473C38.2931 92.28 38.6804 92.1958 39.0509 92.0947L39.5562 89.7201H36.3227L36.9542 86.7897H44.1538L42.4108 94.9746C41.7034 95.3619 40.794 95.7072 39.6825 96.0103C38.5878 96.3134 37.291 96.465 35.7922 96.465ZM51.4638 96.465C50.0828 96.465 48.9123 96.2377 47.9524 95.783C46.9924 95.3114 46.2598 94.6799 45.7546 93.8883C45.2662 93.0799 45.022 92.1705 45.022 91.16C45.022 90.7222 45.0725 90.2675 45.1736 89.7959L47.2703 79.9438H52.0195L49.9986 89.4422C49.8975 89.9138 49.847 90.3264 49.847 90.6801C49.847 91.3032 50.0407 91.7495 50.428 92.0189C50.8154 92.2884 51.4469 92.4231 52.3227 92.4231C53.4005 92.4231 54.2089 92.1958 54.7478 91.7411C55.2867 91.2864 55.6656 90.5201 55.8846 89.4422L57.9055 79.9438H62.6547L60.5328 89.9475C60.0612 92.2379 59.0844 93.8967 57.6024 94.9241C56.1204 95.9514 54.0742 96.465 51.4638 96.465ZM64.1566 96.465C63.4493 96.465 62.7841 96.4145 62.161 96.3134C61.5378 96.2292 60.9568 96.0861 60.4179 95.884L61.2515 91.9432C62.0262 92.28 62.9525 92.4484 64.0303 92.4484C65.0408 92.4484 65.7565 92.2631 66.1776 91.8926C66.5986 91.5221 66.8933 90.9074 67.0617 90.0485L69.209 79.9438H73.9582L71.6594 90.8064C71.272 92.6421 70.4721 94.0483 69.2595 95.0251C68.047 95.985 66.346 96.465 64.1566 96.465Z" fill="white"></path>
<path d="M35.2766 79.7502C34.5692 79.7502 33.904 79.6997 33.2809 79.5986C32.6577 79.5144 32.0767 79.3712 31.5378 79.1692L32.3714 75.2283C33.1461 75.5651 34.0724 75.7335 35.1502 75.7335C36.1607 75.7335 36.8765 75.5483 37.2975 75.1778C37.7185 74.8073 38.0132 74.1926 38.1817 73.3337L40.3289 63.229H45.0781L42.7793 74.0915C42.392 75.9272 41.592 77.3335 40.3794 78.3103C39.1669 79.2702 37.4659 79.7502 35.2766 79.7502ZM51.2992 79.7502C49.9183 79.7502 48.7478 79.5228 47.7879 79.0681C46.8279 78.5966 46.0953 77.965 45.5901 77.1735C45.1017 76.3651 44.8575 75.4557 44.8575 74.4452C44.8575 74.0073 44.908 73.5526 45.0091 73.0811L47.1058 63.229H51.855L49.8341 72.7274C49.733 73.1989 49.6825 73.6116 49.6825 73.9652C49.6825 74.5883 49.8762 75.0346 50.2635 75.3041C50.6509 75.5736 51.2824 75.7083 52.1581 75.7083C53.236 75.7083 54.0444 75.4809 54.5833 75.0262C55.1222 74.5715 55.5011 73.8052 55.7201 72.7274L57.741 63.229H62.4902L60.3682 73.2326C59.8967 75.523 58.9199 77.1819 57.4379 78.2092C55.9558 79.2365 53.9096 79.7502 51.2992 79.7502ZM69.4992 79.7502C68.0172 79.7502 66.7204 79.5144 65.6089 79.0428C64.5142 78.5713 63.6637 77.8808 63.0574 76.9714C62.4511 76.0451 62.148 74.9168 62.148 73.5863C62.148 72.9295 62.2238 72.239 62.3754 71.5148C62.9648 68.7866 64.1521 66.6814 65.9373 65.1994C67.7224 63.7174 70.2149 62.9763 73.4148 62.9763C74.4252 62.9763 75.3262 63.0353 76.1178 63.1532C76.9093 63.2711 77.6419 63.4479 78.3156 63.6837L77.4314 67.7508C76.7577 67.4645 76.0336 67.2708 75.2589 67.1698C74.501 67.0688 73.7095 67.0182 72.8843 67.0182C71.4359 67.0182 70.2149 67.3719 69.2213 68.0792C68.2277 68.7866 67.5625 69.9318 67.2256 71.5148C67.0741 72.1716 66.9983 72.7442 66.9983 73.2326C66.9983 74.0915 67.2509 74.7231 67.7561 75.1273C68.2782 75.5146 69.1455 75.7083 70.3581 75.7083C70.796 75.7083 71.2086 75.683 71.5959 75.6325C72.0001 75.5651 72.3875 75.4809 72.758 75.3799L73.2632 73.0053H70.0297L70.6612 70.0749H77.8608L76.1178 78.2597C75.4105 78.6471 74.501 78.9923 73.3895 79.2955C72.2948 79.5986 70.9981 79.7502 69.4992 79.7502Z" fill="black"></path>
</g>
<rect x="0.564703" y="0.564703" width="111.811" height="111.811" rx="55.9056" stroke="black" stroke-width="1.12941"></rect>
<defs>
<radialGradient id="paint0_radial_73_537" cx="0" cy="0" r="1" gradientUnits="userSpaceOnUse" gradientTransform="translate(60.0344 37.4976) scale(10.1591 10.1591)">
<stop stop-color="#FBC8B4"></stop>
<stop offset="1" stop-color="#ED1C24"></stop>
</radialGradient>
<radialGradient id="paint1_radial_73_537" cx="0" cy="0" r="1" gradientUnits="userSpaceOnUse" gradientTransform="translate(54.0193 31.4822) scale(10.1591 10.1591)">
<stop stop-color="#FBC8B4"></stop>
<stop offset="1" stop-color="#ED1C24"></stop>
</radialGradient>
<clipPath id="clip0_73_537">
<rect width="58.8456" height="47.2091" fill="white" transform="translate(33.1208 17.3086)"></rect>
</clipPath>
<clipPath id="clip1_73_537">
<rect width="112.941" height="112.941" rx="56.4703" fill="white"></rect>
</clipPath>
<clipPath id="clip2_73_537">
<rect width="58.8456" height="47.2091" fill="white" transform="translate(27.106 11.2933)"></rect>
</clipPath>
</defs>
</svg>