<svg width="574" height="215" viewBox="0 0 574 215" fill="none" xmlns="http://www.w3.org/2000/svg">
<path d="M536.264 84.0485L533.735 53.9337L515.06 9.30261L529.601 8.08153L540.009 34.1336L545.362 6.75805L559.435 5.57636L548.652 52.6811L551.181 82.7959L536.264 84.0485Z" fill="#0A0A0A"></path>
<path d="M483.856 88.4493L492.204 11.2219L509.372 9.78025L530.388 84.5419L516.034 85.7472L511.912 69.2765L499.903 70.2849L498.397 87.2283L483.856 88.4493ZM500.515 60.6913L509.615 59.9272L502.442 29.6355L500.515 60.6913Z" fill="#0A0A0A"></path>
<path d="M439.761 92.1523L433.379 16.1617L451.955 14.6019C458.397 14.061 463.471 14.4852 467.178 15.8745C470.942 17.196 473.724 19.5762 475.525 23.0152C477.32 26.3916 478.449 30.8317 478.911 36.3355L481.235 64.0111C481.707 69.6401 481.346 74.3313 480.149 78.0849C478.953 81.8385 476.645 84.7406 473.228 86.7912C469.867 88.7739 465.028 90.0306 458.711 90.561L439.761 92.1523ZM454.334 80.0637L457.618 79.788C460.495 79.5464 462.491 78.9379 463.605 77.9625C464.777 76.9193 465.446 75.509 465.612 73.7315C465.772 71.8914 465.742 69.658 465.522 67.0312L462.891 35.6968C462.67 33.0699 462.275 30.9931 461.706 29.4663C461.194 27.8717 460.281 26.7516 458.967 26.1061C457.716 25.4554 455.714 25.2456 452.963 25.4766L449.773 25.7445L454.334 80.0637Z" fill="#0A0A0A"></path>
<path d="M392.919 96.0855L390.39 65.9707L371.715 21.3396L386.257 20.1185L396.664 46.1706L402.018 18.795L416.09 17.6133L405.307 64.7181L407.836 94.8329L392.919 96.0855Z" fill="#0A0A0A"></path>
<path d="M346.158 100.013L340.746 35.5615L329.019 36.5463L328.05 25.007L366.889 21.7455L367.858 33.2848L356.319 34.2538L361.731 98.7051L346.158 100.013Z" fill="#0A0A0A"></path>
<path d="M314.116 102.702L307.735 26.7115L323.121 25.4196L329.502 101.41L314.116 102.702Z" fill="#0A0A0A"></path>
<path d="M270.423 106.372L264.042 30.3816L274.83 29.4756L295.042 67.6478L291.717 28.0576L304.476 26.9862L310.857 102.977L300.537 103.843L280.121 63.232L283.651 105.261L270.423 106.372Z" fill="#0A0A0A"></path>
<path d="M244.693 109.57C238.939 110.053 234.385 109.459 231.033 107.788C227.675 106.055 225.184 103.398 223.561 99.8183C221.995 96.1707 220.989 91.6888 220.543 86.3726L216.178 34.3988L231.47 33.1147L236.016 87.2463C236.173 89.1226 236.453 90.9571 236.856 92.7499C237.321 94.5374 238.07 95.9546 239.102 97.0016C240.198 98.0434 241.746 98.4802 243.747 98.3122C245.811 98.1389 247.265 97.4499 248.109 96.2454C249.015 95.0355 249.517 93.5133 249.615 91.6785C249.713 89.8437 249.683 87.9882 249.525 86.1118L244.98 31.9803L260.272 30.6962L264.636 82.67C265.082 87.9862 264.806 92.5758 263.808 96.4387C262.867 100.234 260.886 103.266 257.864 105.535C254.837 107.742 250.447 109.087 244.693 109.57Z" fill="#0A0A0A"></path>
<path d="M164.742 115.245L159.674 39.1442L176.092 37.7656L189.499 84.9175L195.512 36.1349L211.367 34.8035L219.061 110.684L207.803 111.629L202.259 60.2268L196.921 112.543L187.258 113.354L172.769 62.3252L176.094 114.292L164.742 115.245Z" fill="#0A0A0A"></path>
<path d="M107.249 120.073L102.182 43.9719L118.599 42.5932L132.006 89.7452L138.019 40.9625L153.874 39.6311L161.568 115.511L150.311 116.457L144.766 65.0545L139.428 117.371L129.765 118.182L115.276 67.1529L118.601 119.12L107.249 120.073Z" fill="#0A0A0A"></path>
<path d="M81.0909 123.309C75.5246 123.776 71.0312 123.146 67.6109 121.417C64.1905 119.689 61.6062 117.04 59.8578 113.471C58.1667 109.834 57.1032 105.42 56.6673 100.229L54.2882 71.8965C53.8523 66.7054 54.1674 62.207 55.2335 58.4014C56.3621 54.5905 58.4712 51.5791 61.5606 49.3671C64.6501 47.1552 68.978 45.8155 74.5444 45.3481C80.1733 44.8754 84.698 45.5032 88.1183 47.2315C91.5959 48.892 94.1777 51.5095 95.8635 55.0841C97.6066 58.5908 98.6961 62.9397 99.132 68.1309L101.511 96.4632C101.947 101.654 101.603 106.187 100.48 110.06C99.4138 113.866 97.3074 116.908 94.1607 119.188C91.0765 121.463 86.7199 122.836 81.0909 123.309ZM80.1535 112.145C82.1549 111.977 83.5879 111.415 84.4525 110.461C85.3119 109.444 85.8349 108.172 86.0216 106.645C86.203 105.055 86.2202 103.384 86.0731 101.633L83.0559 65.7017C82.9088 63.9505 82.6159 62.3375 82.1772 60.8627C81.7384 59.3879 81.0132 58.2521 80.0015 57.4553C78.9846 56.5959 77.4754 56.2503 75.474 56.4183C73.5977 56.5759 72.2298 57.1631 71.3705 58.1801C70.5058 59.1344 69.9802 60.3753 69.7935 61.9026C69.6068 63.4299 69.587 65.0692 69.7341 66.8204L72.7513 102.752C72.8984 104.503 73.1626 106.15 73.5441 107.692C73.9829 109.167 74.7107 110.334 75.7277 111.194C76.7394 111.991 78.2146 112.308 80.1535 112.145Z" fill="#0A0A0A"></path>
<path d="M33.3653 127.316C27.7364 127.789 23.1752 127.101 19.6818 125.253C16.251 123.4 13.7213 120.652 12.0928 117.009C10.459 113.305 9.43201 108.95 9.01186 103.947L6.71939 76.6466C6.27822 71.3929 6.55679 66.8346 7.55509 62.9717C8.54814 59.0462 10.5841 55.915 13.6631 53.5779C16.8046 51.2356 21.1898 49.8281 26.8188 49.3555C32.2601 48.8986 36.5892 49.4483 39.8061 51.0047C43.0856 52.5559 45.49 54.9364 47.0192 58.1461C48.611 61.3507 49.5907 65.142 49.9583 69.52L50.494 75.8995L35.4835 77.1599L34.8848 70.03C34.7378 68.2787 34.5074 66.6605 34.1937 65.1752C33.8748 63.6274 33.2381 62.4211 32.2837 61.5565C31.3866 60.6241 29.9061 60.2445 27.8422 60.4178C25.7782 60.5911 24.3192 61.2175 23.4651 62.297C22.6109 63.3765 22.1271 64.7398 22.0134 66.387C21.8946 67.9716 21.9165 69.7333 22.0793 71.6721L24.9784 106.196C25.157 108.323 25.4709 110.186 25.9202 111.786C26.4267 113.318 27.1859 114.482 28.1975 115.279C29.2665 116.008 30.7079 116.297 32.5216 116.144C34.523 115.976 35.8909 115.389 36.6252 114.383C37.4168 113.308 37.8381 111.95 37.8892 110.308C38.0028 108.661 37.9835 106.931 37.8311 105.117L37.2088 97.7056L52.2193 96.4451L52.7471 102.731C53.12 107.171 52.8254 111.164 51.8634 114.709C50.8961 118.191 48.9642 121.062 46.0676 123.321C43.1658 125.517 38.9317 126.849 33.3653 127.316Z" fill="#0A0A0A"></path>
<path d="M525.49 3.34175L525.687 3.83576L535.188 27.6222L540.075 2.64129L540.179 2.10824L555.773 0.798812L555.554 1.75803L544.796 48.7527L547.376 79.4727L531.026 80.8456L528.446 50.1256L509.815 5.60074L509.434 4.68999L525.49 3.34175Z" fill="white" stroke="black" stroke-width="1.43771"></path>
<path d="M505.321 5.03275L505.482 5.60432L526.498 80.3657L526.733 81.2035L510.903 82.5328L510.754 81.9406L506.781 66.0622L495.984 66.9688L494.531 83.3108L494.477 83.9121L478.465 85.2567L478.558 84.3904L486.906 7.16315L486.971 6.57368L505.321 5.03275ZM496.702 55.9237L504.14 55.2991L498.276 30.5349L496.702 55.9237Z" fill="white" stroke="black" stroke-width="1.43771"></path>
<path d="M447.313 9.90438C453.793 9.36021 458.985 9.77627 462.833 11.2147L462.834 11.2147C466.764 12.5942 469.691 15.0936 471.578 18.6968L471.917 19.3631C473.574 22.7599 474.608 27.0803 475.045 32.2941L477.369 59.9692C477.847 65.6546 477.487 70.4486 476.252 74.322C475.002 78.2442 472.582 81.2869 469.016 83.4263L469.011 83.4286C465.517 85.4902 460.555 86.7612 454.19 87.2957L434.523 88.9472L428.021 11.5243L447.313 9.90438ZM450.409 75.3063L452.976 75.0908C455.823 74.8517 457.618 74.2555 458.551 73.4398C459.565 72.5348 460.164 71.3038 460.315 69.6833C460.47 67.8981 460.442 65.7098 460.223 63.1103L457.592 31.7752C457.374 29.1791 456.988 27.1757 456.451 25.7363L456.445 25.7201L456.44 25.7049C455.978 24.2669 455.181 23.3167 454.068 22.77L454.061 22.7666L454.054 22.7623C452.993 22.2104 451.165 21.9828 448.441 22.2115L445.968 22.4192L450.409 75.3063Z" fill="white" stroke="black" stroke-width="1.43771"></path>
<path d="M382.146 15.3787L382.343 15.8728L391.844 39.6592L396.731 14.6783L396.835 14.1452L412.429 12.8358L412.209 13.795L401.452 60.7897L404.031 91.5097L387.682 92.8826L385.102 62.1626L366.471 17.6377L366.09 16.727L382.146 15.3787Z" fill="white" stroke="black" stroke-width="1.43771"></path>
<path d="M362.962 16.9875L364.051 29.9595L352.512 30.9285L357.924 95.3794L340.918 96.8074L335.506 32.3565L323.779 33.3412L322.689 20.3693L362.962 16.9875Z" fill="white" stroke="black" stroke-width="1.43771"></path>
<path d="M319.194 20.6641L325.696 98.087L308.877 99.4993L302.375 22.0765L319.194 20.6641Z" fill="white" stroke="black" stroke-width="1.43771"></path>
<path d="M270.659 24.7407L270.881 25.16L289.446 60.2208L286.356 23.4226L300.548 22.2308L307.049 99.6536L295.529 100.621L295.311 100.188L276.564 62.896L279.842 101.938L265.182 103.169L258.681 25.7465L270.659 24.7407Z" fill="white" stroke="black" stroke-width="1.43771"></path>
<path d="M227.545 28.3596L232.15 83.2076C232.305 85.0488 232.579 86.8479 232.973 88.6049C233.413 90.2865 234.105 91.5727 235.021 92.5059C235.922 93.3608 237.241 93.7737 239.105 93.6172C241.047 93.4541 242.261 92.8215 242.938 91.8547L242.945 91.8443L242.951 91.836C243.755 90.7626 244.224 89.3849 244.316 87.6613C244.412 85.8602 244.382 84.0377 244.227 82.1935L239.621 27.3455L256.347 25.941L260.771 78.6306C261.222 84.0017 260.947 88.6768 259.923 92.6394C258.943 96.586 256.871 99.7607 253.714 102.132L253.706 102.137C250.53 104.453 245.991 105.819 240.171 106.308C234.351 106.797 229.648 106.206 226.131 104.453L226.121 104.449C222.614 102.638 220.012 99.857 218.325 96.1363L218.322 96.1297L218.319 96.1231C216.714 92.3848 215.696 87.822 215.245 82.4535L210.82 29.764L227.545 28.3596Z" fill="white" stroke="black" stroke-width="1.43771"></path>
<path d="M172.037 33.0212L172.198 33.5907L184.634 77.3275L190.213 32.0682L190.285 31.4888L207.425 30.0495L207.496 30.7521L215.191 106.633L215.265 107.36L202.578 108.425L202.503 107.728L197.692 63.1333L193.05 108.637L192.99 109.23L182.142 110.141L181.981 109.572L169.33 65.0161L172.226 110.267L172.271 110.97L159.488 112.044L159.439 111.315L154.372 35.2131L154.324 34.5085L172.037 33.0212Z" fill="white" stroke="black" stroke-width="1.43771"></path>
<path d="M114.543 37.8488L114.705 38.4183L127.141 82.1552L132.72 36.8958L132.792 36.3165L149.931 34.8772L150.003 35.5797L157.698 111.461L157.772 112.188L145.085 113.253L145.01 112.556L140.199 67.9609L135.557 113.465L135.497 114.058L124.649 114.969L124.488 114.399L111.837 69.8437L114.732 115.095L114.778 115.798L101.995 116.871L101.946 116.142L96.8787 40.0407L96.8313 39.3361L114.543 37.8488Z" fill="white" stroke="black" stroke-width="1.43771"></path>
<path d="M69.9033 40.6532C75.6059 40.1744 80.2795 40.8009 83.8622 42.6112L83.8612 42.6113C87.481 44.3434 90.1745 47.0767 91.927 50.7853L92.2551 51.4722C93.8567 54.9541 94.8545 59.1675 95.268 64.0925L97.6471 92.4244C98.0883 97.6786 97.7438 102.303 96.59 106.281C95.481 110.236 93.2823 113.412 90.0059 115.787C86.7754 118.17 82.2726 119.568 76.5701 120.047C70.9287 120.52 66.2879 119.89 62.7066 118.081C59.1411 116.279 56.4461 113.513 54.6316 109.808L54.6281 109.802L54.6256 109.795C52.8901 106.063 51.8115 101.562 51.3705 96.3104L48.9914 67.9784C48.5505 62.7276 48.8653 58.1388 49.9605 54.229L49.9636 54.2189L50.1951 53.4861C51.4142 49.8716 53.5371 46.969 56.5612 44.8038C59.7943 42.489 64.2647 41.1268 69.9033 40.6532ZM70.9532 53.1561C69.1878 53.3044 68.0321 53.8453 67.3392 54.665L67.3312 54.6745L67.3222 54.6841C66.5756 55.5083 66.099 56.6018 65.9267 58.0107C65.7468 59.4827 65.7262 61.0725 65.8697 62.7813L68.887 98.7134C69.0309 100.427 69.2889 102.033 69.6592 103.533C70.0635 104.878 70.7173 105.907 71.6013 106.658C72.4121 107.291 73.6718 107.604 75.5123 107.449C77.4216 107.289 78.6379 106.764 79.329 106.009C80.0804 105.116 80.5557 103.985 80.7275 102.579C80.9025 101.042 80.92 99.4214 80.7768 97.715L77.7594 61.7829C77.6159 60.0741 77.3305 58.51 76.9076 57.0886C76.5027 55.728 75.8497 54.7296 74.9759 54.0414L74.9569 54.0253C74.1452 53.3395 72.8597 52.996 70.9532 53.1561Z" fill="white" stroke="black" stroke-width="1.43771"></path>
<path d="M22.1756 44.6606C27.6827 44.1982 32.1575 44.7441 35.5361 46.3787L35.5351 46.3788C38.955 47.9976 41.4786 50.4922 43.0802 53.8479L43.3796 54.4734C44.8422 57.6371 45.7413 61.3109 46.0915 65.4814L46.6873 72.5766L30.2442 73.9573L29.5854 66.1119C29.4405 64.386 29.2144 62.7972 28.9078 61.3452L28.9065 61.3414C28.6113 59.9087 28.0357 58.8518 27.2182 58.111L27.2001 58.0939L27.1829 58.0758C26.507 57.3734 25.2959 56.9896 23.3189 57.1556C21.3536 57.3207 20.1259 57.9051 19.4458 58.7647C18.6984 59.7093 18.2534 60.9259 18.1477 62.4575L18.1472 62.4625C18.0317 64.0017 18.0526 65.7245 18.2129 67.6333L21.1119 102.157C21.2876 104.249 21.5948 106.065 22.0284 107.61C22.4978 109.016 23.1785 110.034 24.0388 110.719C24.9242 111.315 26.1753 111.592 27.878 111.449C29.7964 111.288 30.908 110.738 31.461 109.98L31.4638 109.978C32.1506 109.046 32.5397 107.837 32.5873 106.307L32.5881 106.294L32.589 106.281C32.6999 104.674 32.6813 102.979 32.5317 101.198L31.8492 93.0707L48.2923 91.69L48.8803 98.6917C49.2587 103.199 48.9625 107.278 47.9745 110.919L47.9728 110.923C46.9636 114.556 44.9422 117.558 41.9263 119.91L41.9189 119.915C38.8651 122.226 34.4773 123.581 28.8424 124.054C23.1327 124.533 18.4197 123.845 14.7631 121.91L14.7569 121.907C11.1834 119.976 8.54531 117.107 6.85378 113.324L6.85159 113.321L7.51025 113.031L6.8515 113.32C5.17911 109.528 4.13792 105.093 3.71264 100.029L1.42016 72.7282C0.974425 67.4201 1.25167 62.7779 2.27472 58.8169L2.4808 58.0617C3.57544 54.3351 5.63153 51.3148 8.64582 49.0268L8.65035 49.0225L8.9626 48.7964C12.2219 46.484 16.6472 45.1248 22.1756 44.6606Z" fill="white" stroke="black" stroke-width="1.43771"></path>
<rect x="250" y="127.646" width="205.734" height="66.7245" rx="8.15405" transform="rotate(-13.377 250 127.646)" fill="black"></rect>
<rect x="243.106" y="123.782" width="207.274" height="68.2642" rx="8.92391" transform="rotate(-13.377 243.106 123.782)" fill="#F02D32" stroke="black" stroke-width="1.53973"></rect>
<path d="M282.485 163.899L275.529 134.646L295.44 129.911L296.743 135.393L283.937 138.439L285.595 145.412L296.647 142.784L297.972 148.354L286.92 150.982L289.59 162.209L282.485 163.899ZM314.127 157.069C310.385 157.959 307.327 157.636 304.954 156.1C302.603 154.527 300.965 151.797 300.04 147.908C299.046 143.727 299.283 140.504 300.753 138.24C302.244 135.939 304.832 134.35 308.516 133.474C311.001 132.883 313.178 132.813 315.046 133.265C316.937 133.68 318.511 134.65 319.769 136.173C321.056 137.69 322.023 139.807 322.67 142.526C323.595 146.415 323.318 149.601 321.838 152.084C320.352 154.538 317.782 156.2 314.127 157.069ZM312.886 151.85C313.968 151.593 314.8 151.132 315.384 150.468C315.99 149.768 316.353 148.894 316.475 147.846C316.618 146.761 316.52 145.503 316.179 144.07C315.79 142.433 315.294 141.191 314.691 140.346C314.111 139.465 313.407 138.906 312.578 138.671C311.743 138.406 310.799 138.399 309.747 138.649C308.636 138.913 307.781 139.348 307.184 139.954C306.587 140.559 306.227 141.386 306.106 142.434C306.007 143.446 306.148 144.756 306.531 146.365C307.059 148.587 307.836 150.163 308.86 151.093C309.907 151.987 311.249 152.239 312.886 151.85ZM327.647 153.159L322.922 133.292C323.248 132.844 323.885 132.275 324.834 131.586C325.775 130.868 326.876 130.174 328.138 129.503C329.422 128.796 330.751 128.279 332.125 127.952C333.499 127.626 334.605 127.471 335.443 127.488C336.281 127.505 336.943 127.625 337.429 127.849L338.566 132.63C338.041 132.631 337.392 132.693 336.618 132.815C335.843 132.937 335.047 133.096 334.228 133.291C333.403 133.456 332.628 133.64 331.904 133.843C331.18 134.046 330.58 134.251 330.104 134.457L334.182 151.605L327.647 153.159ZM359.802 146.114C358.516 146.42 357.25 146.551 356.004 146.508C354.765 146.494 353.592 146.371 352.487 146.139L350.944 139.649C352.098 140.085 353.14 140.439 354.069 140.713C354.999 140.986 355.888 141.021 356.736 140.82C357.964 140.528 358.867 139.973 359.445 139.156C360.023 138.339 360.142 137.214 359.801 135.782L355.035 115.739L362.139 114.05L366.979 134.399C367.417 136.241 367.504 137.842 367.241 139.202C366.97 140.533 366.469 141.672 365.736 142.618C365.026 143.528 364.135 144.265 363.065 144.829C362.03 145.415 360.943 145.843 359.802 146.114ZM381.6 141.023C380.255 141.343 378.952 141.514 377.69 141.536C376.465 141.58 375.333 141.432 374.295 141.092C373.279 140.716 372.407 140.105 371.681 139.258C370.947 138.382 370.407 137.213 370.059 135.752C369.732 134.377 369.725 133.113 370.037 131.957C370.379 130.795 371.068 129.797 372.105 128.963C373.143 128.13 374.553 127.501 376.337 127.076C377.331 126.84 378.32 126.713 379.304 126.695C380.289 126.677 381.188 126.757 382.002 126.934C382.846 127.104 383.536 127.342 384.072 127.647L385.086 130.742C384.417 130.53 383.65 130.419 382.782 130.409C381.915 130.399 381.014 130.505 380.078 130.728C378.645 131.069 377.645 131.538 377.077 132.137C376.531 132.699 376.366 133.433 376.581 134.34C376.713 134.895 376.992 135.354 377.418 135.716C377.844 136.078 378.348 136.313 378.93 136.422C379.541 136.524 380.139 136.505 380.724 136.366C382.215 136.012 383.229 135.663 383.765 135.319C384.33 134.968 384.54 134.486 384.394 133.872L382.454 125.715C382.134 124.37 381.466 123.509 380.45 123.133C379.456 122.721 378.169 122.702 376.591 123.078C375.304 123.383 374.059 123.927 372.854 124.707C371.672 125.452 370.748 126.243 370.082 127.081L368.706 121.292C369.355 120.643 370.42 119.927 371.901 119.142C373.412 118.35 375.162 117.718 377.15 117.245C377.851 117.078 378.64 116.952 379.516 116.868C380.392 116.783 381.292 116.801 382.216 116.921C383.133 117.011 384.012 117.266 384.853 117.684C385.723 118.095 386.485 118.701 387.139 119.503C387.794 120.305 388.28 121.379 388.6 122.724L391.049 133.216C391.348 134.473 391.168 135.597 390.507 136.588C389.84 137.55 388.744 138.398 387.22 139.131C385.724 139.857 383.851 140.488 381.6 141.023ZM401.88 135.505L387.349 115.515L394.454 113.825L405.231 129.333L403.663 129.753L405.549 111.186L412.435 109.549L408.458 133.941L401.88 135.505ZM427.366 130.14C426.021 130.46 424.718 130.63 423.457 130.652C422.232 130.697 421.1 130.549 420.062 130.209C419.045 129.833 418.174 129.221 417.448 128.374C416.714 127.499 416.174 126.33 415.826 124.868C415.499 123.494 415.492 122.229 415.804 121.073C416.145 119.911 416.835 118.913 417.872 118.079C418.91 117.246 420.32 116.617 422.103 116.193C423.098 115.956 424.087 115.829 425.071 115.811C426.055 115.794 426.955 115.873 427.769 116.05C428.613 116.22 429.302 116.458 429.838 116.763L430.852 119.858C430.184 119.646 429.416 119.535 428.549 119.525C427.682 119.515 426.78 119.622 425.845 119.844C424.412 120.185 423.412 120.654 422.843 121.253C422.298 121.815 422.132 122.549 422.348 123.456C422.48 124.011 422.759 124.47 423.185 124.832C423.611 125.194 424.115 125.43 424.697 125.538C425.308 125.64 425.906 125.622 426.491 125.483C427.982 125.128 428.995 124.779 429.531 124.435C430.097 124.084 430.306 123.602 430.16 122.988L428.22 114.831C427.901 113.486 427.233 112.625 426.216 112.249C425.222 111.837 423.936 111.818 422.357 112.194C421.071 112.5 419.825 113.043 418.621 113.824C417.439 114.568 416.515 115.359 415.849 116.197L414.472 110.408C415.121 109.76 416.187 109.043 417.668 108.258C419.179 107.466 420.928 106.834 422.916 106.361C423.618 106.195 424.407 106.069 425.283 105.984C426.158 105.899 427.058 105.917 427.983 106.037C428.9 106.128 429.779 106.382 430.62 106.8C431.49 107.211 432.252 107.817 432.906 108.619C433.56 109.422 434.047 110.495 434.367 111.84L436.816 122.332C437.115 123.589 436.934 124.713 436.274 125.705C435.607 126.666 434.511 127.514 432.986 128.247C431.491 128.973 429.618 129.604 427.366 130.14Z" fill="white"></path>
<ellipse cx="258.904" cy="133.511" rx="3.77715" ry="3.77715" transform="rotate(-13.377 258.904 133.511)" fill="#000102" stroke="black" stroke-width="0.769867"></ellipse>
<path d="M257.146 133.709C239.441 124.29 237.977 96.5999 236.406 88.1294C245.197 87.3914 251.434 127.675 258.361 131.236C264.115 134.194 258.907 134.646 257.146 133.709Z" stroke="black" stroke-width="1.39676"></path>
<path d="M250.691 125.846C249.656 125.276 248.915 122.792 254.834 121.653C260.53 121.098 265.149 127.719 260.861 128.369C258.992 128.653 256.657 129.007 255.258 130.754C253.63 129.473 251.306 126.185 250.691 125.846Z" fill="#F02D32"></path>
<path d="M243.996 104.924C242.28 101.432 239.35 94.8178 240.996 93.8147C242.8 92.7149 243.807 91.5241 244.055 90.713C246.241 94.1646 251.046 101.695 250.732 102.48C250.419 103.265 246.819 104.924 243.996 104.924Z" fill="white"></path>
</svg>